HIERARCHY
ROOT Hips
{
	OFFSET 0.00000 0.00000 0.00000
	CHANNELS 6 Xposition Yposition Zposition Zrotation Yrotation Xrotation 
	JOINT LHipJoint
	{
		OFFSET 0 0 0
		CHANNELS 3 Zrotation Yrotation Xrotation
		JOINT LeftUpLeg
		{
			OFFSET 1.37959 -1.78713 0.86582
			CHANNELS 3 Zrotation Yrotation Xrotation
			JOINT LeftLeg
			{
				OFFSET 2.54611 -6.99539 0.00000
				CHANNELS 3 Zrotation Yrotation Xrotation
				JOINT LeftFoot
				{
					OFFSET 2.59951 -7.14211 0.00000
					CHANNELS 3 Zrotation Yrotation Xrotation
					JOINT LeftToeBase
					{
						OFFSET 0.18493 -0.50810 1.96120
						CHANNELS 3 Zrotation Yrotation Xrotation
						End Site
						{
							OFFSET 0.00000 -0.00000 1.02054
						}
					}
				}
			}
		}
	}
	JOINT RHipJoint
	{
		OFFSET 0 0 0
		CHANNELS 3 Zrotation Yrotation Xrotation
		JOINT RightUpLeg
		{
			OFFSET -1.33564 -1.78713 0.86582
			CHANNELS 3 Zrotation Yrotation Xrotation
			JOINT RightLeg
			{
				OFFSET -2.52705 -6.94302 0.00000
				CHANNELS 3 Zrotation Yrotation Xrotation
				JOINT RightFoot
				{
					OFFSET -2.55964 -7.03257 0.00000
					CHANNELS 3 Zrotation Yrotation Xrotation
					JOINT RightToeBase
					{
						OFFSET -0.25804 -0.70896 2.12109
						CHANNELS 3 Zrotation Yrotation Xrotation
						End Site
						{
							OFFSET -0.00000 -0.00000 1.11821
						}
					}
				}
			}
		}
	}
	JOINT LowerBack
	{
		OFFSET 0 0 0
		CHANNELS 3 Zrotation Yrotation Xrotation
		JOINT Spine
		{
			OFFSET -0.02031 2.24248 -0.18900
			CHANNELS 3 Zrotation Yrotation Xrotation
			JOINT Spine1
			{
				OFFSET 0.08342 2.24689 -0.03799
				CHANNELS 3 Zrotation Yrotation Xrotation
				JOINT Neck
				{
					OFFSET 0 0 0
					CHANNELS 3 Zrotation Yrotation Xrotation
					JOINT Neck1
					{
						OFFSET -0.11607 1.55844 0.24628
						CHANNELS 3 Zrotation Yrotation Xrotation
						JOINT Head
						{
							OFFSET 0.06877 1.60174 -0.17013
							CHANNELS 3 Zrotation Yrotation Xrotation
							End Site
							{
								OFFSET 0.03358 1.61266 -0.08543
							}
						}
					}
				}
				JOINT LeftShoulder
				{
					OFFSET 0 0 0
					CHANNELS 3 Zrotation Yrotation Xrotation
					JOINT LeftArm
					{
						OFFSET 3.47537 0.55866 -0.72348
						CHANNELS 3 Zrotation Yrotation Xrotation
						JOINT LeftForeArm
						{
							OFFSET 5.38154 -0.00000 0.00000
							CHANNELS 3 Zrotation Yrotation Xrotation
							JOINT LeftHand
							{
								OFFSET 3.33312 -0.00000 0.00000
								CHANNELS 3 Zrotation Yrotation Xrotation
								JOINT LeftFingerBase
								{
									OFFSET 0 0 0
									CHANNELS 3 Zrotation Yrotation Xrotation
									JOINT LeftHandIndex1
									{
										OFFSET 0.71079 -0.00000 0.00000
										CHANNELS 3 Zrotation Yrotation Xrotation
										End Site
										{
											OFFSET 0.57306 -0.00000 0.00000
										}
									}
								}
								JOINT LThumb
								{
									OFFSET 0 0 0
									CHANNELS 3 Zrotation Yrotation Xrotation
									End Site
									{
										OFFSET 0.58181 -0.00000 0.58181
									}
								}
							}
						}
					}
				}
				JOINT RightShoulder
				{
					OFFSET 0 0 0
					CHANNELS 3 Zrotation Yrotation Xrotation
					JOINT RightArm
					{
						OFFSET -3.27844 0.90739 -0.35708
						CHANNELS 3 Zrotation Yrotation Xrotation
						JOINT RightForeArm
						{
							OFFSET -5.16954 -0.00000 0.00000
							CHANNELS 3 Zrotation Yrotation Xrotation
							JOINT RightHand
							{
								OFFSET -3.38287 -0.00000 0.00000
								CHANNELS 3 Zrotation Yrotation Xrotation
								JOINT RightFingerBase
								{
									OFFSET 0 0 0
									CHANNELS 3 Zrotation Yrotation Xrotation
									JOINT RightHandIndex1
									{
										OFFSET -0.81797 -0.00000 0.00000
										CHANNELS 3 Zrotation Yrotation Xrotation
										End Site
										{
											OFFSET -0.65947 -0.00000 0.00000
										}
									}
								}
								JOINT RThumb
								{
									OFFSET 0 0 0
									CHANNELS 3 Zrotation Yrotation Xrotation
									End Site
									{
										OFFSET -0.66953 -0.00000 0.66953
									}
								}
							}
						}
					}
				}
			}
		}
	}
}
MOTION
Frames: 6
Frame Time: 0.0298507
0.00 0.00 0.00 0 0 0 0 0 0 -21 0 0 0 0 0 0 0 0 0 0 0 0 0 0 21 0 0 0 0 0 0 0 0 0 0 0 0 0 0 0 0 0 0 0 0 0 0 -16 0 0 21 0 0 11 0 0 0 -8 0 0 0 0 0 0 0 0 0 0 0 0 0 0 0 0 0 0 0 0 8 0 0 0 0 0 0 0 0 0 0 0 0 0 0 0 0 0
0.00 0.00 0.00 -177.5680 0.5520 -177.7660 0.0000 0.0000 0.0000 -17.0709 -3.8016 -7.7588 2.6899 10.1752 29.5460 1.1290 -8.9790 -19.0824 0.0300 -1.1189 -3.0759 0.0000 0.0000 0.0000 13.8241 4.3997 -10.6849 -2.1066 -9.0847 26.0607 -0.4695 -2.4338 -14.0608 -0.1458 -2.4608 6.7810 -0.8870 1.1212 2.7094 0.0520 1.5463 2.0464 0.5165 0.7933 0.5538 -11.2037 -2.1769 -16.2734 6.0464 -1.5609 16.7096 3.6769 -0.9263 7.9896 0.0000 -0.0000 0.0000 -75.1447 -6.3615 -23.4039 22.2786 -33.2904 -6.7381 -0.0000 0.0000 -28.5253 -11.9471 44.5765 -8.4471 -7.1250 0.0000 -0.0000 -62.7069 63.8141 -34.8678 0.0000 -0.0000 0.0000 78.5106 -0.0431 -17.9497 -23.9302 35.0903 -7.6664 0.0000 -0.0000 -39.8420 -12.9214 20.9659 -4.6929 7.1250 -0.0000 -0.0000 9.9721 -8.7785 8.4661
0.00 0.00 0.00 -172.6210 6.6487 -179.5790 0.0000 0.0000 0.0000 -4.3320 -2.7621 -11.4204 5.6759 14.1068 43.6668 0.5535 -6.0970 -13.2982 0.9213 -6.1154 -17.1196 0.0000 0.0000 0.0000 26.5693 3.9615 -8.2656 -2.2397 -9.3485 26.8917 -0.5921 2.5943 -13.8803 -0.0318 -1.1504 3.1626 4.1983 -2.7032 3.2996 2.6437 -3.3063 2.0763 0.4703 -1.5512 0.2013 -14.7779 -3.1404 -9.4698 6.4951 -2.7356 13.2619 4.2704 -1.5297 5.8827 -0.0000 -0.0000 0.0000 -42.4314 -7.1614 -27.4558 34.6654 -44.5718 -14.5781 -0.0000 0.0000 -40.2670 -15.9934 39.9154 -10.4209 -7.1250 0.0000 -0.0000 -59.0303 60.0853 -27.0696 -0.0000 -0.0000 0.0000 42.6820 10.0814 -32.8961 -32.3407 42.8171 -12.9718 0.0000 -0.0000 -59.2568 -15.0081 20.5075 -5.3657 7.1250 -0.0000 -0.0000 8.6266 -9.0036 7.2552
0.00 0.00 0.00 -173.8470 6.5811 -180.9630 0.0000 0.0000 0.0000 -5.2650 -2.4314 -11.8059 6.2502 14.6665 45.9778 0.3832 -6.8398 -11.3057 1.3830 -7.4412 -21.0293 0.0000 0.0000 0.0000 25.4551 3.7738 -7.5445 -2.4346 -9.7180 28.0682 -0.6579 2.4817 -14.6776 -0.0729 -1.7417 4.7923 2.6374 -1.1961 5.4169 2.4479 -1.2446 2.2582 1.1085 -0.5375 -0.7179 -12.6394 -4.7895 -11.6423 4.2309 -4.5988 16.1947 3.0020 -2.5061 7.3117 0.0000 0.0000 0.0000 -31.6666 -18.0803 -53.8612 11.2246 -18.6316 -1.8470 -0.0000 0.0000 -17.9251 -12.4660 41.3704 -8.3128 -7.1250 0.0000 -0.0000 -58.1087 61.8672 -28.8884 0.0000 0.0000 0.0000 32.3702 10.7827 -62.8902 -15.4247 24.7344 -3.4017 0.0000 -0.0000 -49.0135 -18.8103 18.5828 -6.1952 7.1250 -0.0000 -0.0000 6.0788 -10.5126 4.8961
0.00 0.00 0.00 -174.8570 5.2962 -181.6340 0.0000 0.0000 0.0000 -6.7649 -0.0305 3.2938 3.0824 10.8273 31.6996 1.0947 -2.8726 -19.0268 2.8634 -10.4706 -30.5146 0.0000 0.0000 0.0000 18.1033 7.1605 -7.8053 -2.7784 -10.3273 30.0434 -0.7117 -0.9814 -16.3225 -0.0015 0.2533 -0.6958 0.7635 -3.3338 4.6136 2.8584 -4.2393 0.5959 2.7647 -2.0687 -1.8073 -13.8729 -6.3085 -8.9928 0.7040 -6.0533 15.7857 1.9402 -3.5142 6.8199 -0.0000 0.0000 0.0000 -28.9195 -3.7242 -59.1327 18.8238 -29.1992 -4.9446 -0.0000 0.0000 -42.2010 -7.7176 43.6509 -5.3441 -7.1250 0.0000 -0.0000 -57.6555 64.5288 -31.9991 -0.0000 0.0000 0.0000 23.6619 1.3793 -69.3832 -20.3294 31.0371 -5.7002 0.0000 -0.0000 -58.3586 -15.0291 19.6526 -5.1597 7.1250 -0.0000 -0.0000 8.5813 -9.8667 7.0657
0.00 0.00 0.00 -173.3550 8.7197 -176.3000 0.0000 0.0000 0.0000 -8.4590 1.0519 -0.3848 3.9116 12.0418 35.8800 0.9724 1.7500 -19.3376 3.0868 -10.8342 -31.7229 0.0000 0.0000 0.0000 18.3539 9.8915 -18.2311 -2.6270 -10.0653 29.1884 -0.2369 -0.0068 -9.1966 -0.0096 0.6329 -1.7391 0.4082 -1.6901 5.7663 2.6047 -2.0546 1.2721 2.5988 -0.9751 -1.8400 -9.7732 -4.6351 -13.6596 5.2685 -5.0665 11.5797 2.7844 -2.4850 6.1378 -0.0000 0.0000 0.0000 -88.4805 -6.6205 38.3336 32.6341 -43.0469 -13.1716 -0.0000 0.0000 -4.9175 5.8248 39.0498 3.6773 -7.1250 0.0000 -0.0000 -37.8766 65.3231 -19.8740 -0.0000 0.0000 0.0000 76.9146 4.8381 40.3262 -48.2817 52.2785 -24.8084 0.0000 0.0000 1.9255 -22.2358 35.7657 -13.4385 7.1250 -0.0000 -0.0000 5.9725 7.7263 6.7557
